<svg  xmlns="http://www.w3.org/2000/svg" xmlns:xlink="http://www.w3.org/1999/xlink" width="80px" height="160px" style="background-color: #ffffff;">
	<path fill-rule="evenodd"  fill="rgb(0, 0, 0)" d="M58.000,44.000 L22.000,44.000 C19.791,44.000 18.000,42.209 18.000,40.000 C18.000,37.791 19.791,36.000 22.000,36.000 L58.000,36.000 C60.209,36.000 62.000,37.791 62.000,40.000 C62.000,42.209 60.209,44.000 58.000,44.000 ZM58.000,28.000 L22.000,28.000 C19.791,28.000 18.000,26.209 18.000,24.000 C18.000,21.791 19.791,20.000 22.000,20.000 L58.000,20.000 C60.209,20.000 62.000,21.791 62.000,24.000 C62.000,26.209 60.209,28.000 58.000,28.000 ZM22.000,52.000 L58.000,52.000 C60.209,52.000 62.000,53.791 62.000,56.000 C62.000,58.209 60.209,60.000 58.000,60.000 L22.000,60.000 C19.791,60.000 18.000,58.209 18.000,56.000 C18.000,53.791 19.791,52.000 22.000,52.000 Z"/>
	<path fill-rule="evenodd"  fill="rgb(0, 0, 0)" d="M45.641,120.016 L58.385,132.759 C59.947,134.321 59.947,136.854 58.385,138.416 C56.823,139.978 54.290,139.978 52.728,138.416 L39.984,125.672 L27.272,138.385 C25.710,139.947 23.177,139.947 21.615,138.385 C20.053,136.823 20.053,134.290 21.615,132.728 L34.328,120.016 L21.615,107.303 C20.053,105.741 20.053,103.209 21.615,101.646 C23.177,100.084 25.710,100.084 27.272,101.646 L39.984,114.359 L52.728,101.615 C54.290,100.053 56.823,100.053 58.385,101.615 C59.947,103.177 59.947,105.710 58.385,107.272 L45.641,120.016 Z"/>
</svg>