<?xml version="1.0" encoding="utf-8"?>
<!-- Generator: Adobe Illustrator 16.0.3, SVG Export Plug-In . SVG Version: 6.00 Build 0)  -->
<!DOCTYPE svg PUBLIC "-//W3C//DTD SVG 1.1//EN" "http://www.w3.org/Graphics/SVG/1.1/DTD/svg11.dtd">
<svg version="1.1" id="Layer_1" xmlns="http://www.w3.org/2000/svg" xmlns:xlink="http://www.w3.org/1999/xlink" x="0px" y="0px"
	 width="418.179px" height="415.49px" viewBox="2 0 418.179 415.49" enable-background="new 2 0 418.179 415.49"
	 xml:space="preserve">
<g>
	<g>
		<path fill="#4552DD" d="M266.693,6.335L414.374,159.44c7.941,8.236,7.705,21.474-0.53,29.417l-34.942,33.704l-12.639,12.191
			c-3.08,2.973-4.982,3.854-8.294,2.301l-7.375-3.455c-3.66-1.717-7.609-0.605-11.332,2.984l-43.699,42.15
			c-3.723,3.59-4.974,7.496-3.392,11.215l3.189,7.496c1.431,3.363,0.481,5.234-2.601,8.207L280.12,317.84l-95.218,91.846
			c-8.236,7.943-21.473,7.705-29.416-0.529L7.806,256.053c-7.944-8.236-7.706-21.473,0.53-29.418L237.277,5.806
			C245.511-2.138,258.749-1.899,266.693,6.335z"/>
	</g>
</g>
</svg>
