<?xml version="1.0" encoding="utf-8"?>
<!-- Generator: Adobe Illustrator 16.0.3, SVG Export Plug-In . SVG Version: 6.00 Build 0)  -->
<!DOCTYPE svg PUBLIC "-//W3C//DTD SVG 1.1//EN" "http://www.w3.org/Graphics/SVG/1.1/DTD/svg11.dtd">
<svg version="1.1" xmlns="http://www.w3.org/2000/svg" xmlns:xlink="http://www.w3.org/1999/xlink" x="0px" y="0px"
	 width="387.485px" height="495.343px" viewBox="0 0 387.485 495.343" enable-background="new 0 0 387.485 495.343"
	 xml:space="preserve">
<g id="Background">
	<g>
		<path fill-rule="evenodd" clip-rule="evenodd" fill="#9A57B4" d="M235.987,40.373"/>
		<path fill-rule="evenodd" clip-rule="evenodd" fill="#9A57B4" d="M243.736,60.705l-13.88-5.896
			c-0.582-0.246-1.259,0.027-1.506,0.607l0.001,0.002c-0.248,0.58,0.025,1.258,0.606,1.504l13.881,5.896
			c0.58,0.246,1.257-0.025,1.503-0.609l0,0C244.59,61.628,244.315,60.953,243.736,60.705z"/>
		<path fill-rule="evenodd" clip-rule="evenodd" fill="#9A57B4" d="M241.941,64.931l-13.881-5.896
			c-0.582-0.246-1.259,0.027-1.506,0.607l0,0c-0.247,0.582,0.026,1.258,0.608,1.506l13.88,5.896
			c0.582,0.248,1.258-0.025,1.504-0.607h0.001C242.794,65.855,242.521,65.179,241.941,64.931z"/>
		<polyline fill-rule="evenodd" clip-rule="evenodd" fill="#4D4D4D" points="387.485,422.542 302.026,475.343 136.982,208.216 
			222.442,155.416 387.485,422.542 		"/>
		<polyline fill-rule="evenodd" clip-rule="evenodd" fill="#666666" points="387.485,422.542 222.441,155.416 179.712,181.816 
			344.756,448.943 387.485,422.542 		"/>
		<path fill-rule="evenodd" clip-rule="evenodd" fill="#D4B194" d="M35.391,84.753L35.391,84.753
			c-3.181-6.346-0.675-14.35,5.753-17.318l61.363-28.33c6.429-2.967,14.137-0.59,17.316,5.756l0,0
			c3.18,6.346,0.585,14.119-5.754,17.314l-61.364,28.33C46.261,93.484,38.57,91.099,35.391,84.753z"/>
		<path fill-rule="evenodd" clip-rule="evenodd" fill="#D4B194" d="M56.503,104.156L56.503,104.156
			c-4.15-5.76-2.949-14.061,2.924-18.014l56.074-37.73c5.874-3.953,13.862-2.836,18.012,2.926l0,0
			c4.149,5.758,2.825,13.846-2.925,18.01L74.513,107.08C68.623,111.044,60.652,109.914,56.503,104.156z"/>
		<polygon fill-rule="evenodd" clip-rule="evenodd" fill="#D4B194" points="171.489,126.195 156.104,44.048 90.48,30.232 
			53.84,53.625 127.493,133.025 		"/>
		<path fill-rule="evenodd" clip-rule="evenodd" fill="#D4B194" d="M80.194,123.156L80.194,123.156
			c-5.558-4.416-6.655-12.73-2.076-18.131l43.722-51.539c4.58-5.4,12.573-6.492,18.131-2.076l0,0
			c5.558,4.418,6.478,12.561,2.072,18.131L98.322,121.08C93.729,126.494,85.75,127.572,80.194,123.156z"/>
		<path fill-rule="evenodd" clip-rule="evenodd" fill="#FFD7B7" d="M176.031,139.314L176.031,139.314
			c-6.646,2.502-15.542-0.543-16.621-7.533l-13.186-85.334c-1.079-6.992,0.89-14.123,7.534-16.623l0,0
			c6.645-2.498,14.104,0.896,16.618,7.535l13.188,85.338C184.648,129.712,182.675,136.816,176.031,139.314z"/>
		<path fill-rule="evenodd" clip-rule="evenodd" fill="#FFD7B7" d="M91.604,21.767L91.604,21.767
			c2.252-6.73,9.57-10.234,16.33-8.143l53.345,15.736c6.786,2.002,10.395,9.6,8.142,16.332l0,0
			c-2.253,6.73-9.592,10.379-16.33,8.141L99.746,38.099C92.938,36.089,89.352,28.501,91.604,21.767z"/>
		<path fill-rule="evenodd" clip-rule="evenodd" fill="#FFD7B7" d="M25.214,51.912L25.214,51.912
			c-2.479-6.652,0.873-14.342,7.581-16.602l64.051-21.572c6.71-2.258,14.119,0.93,16.599,7.58l0,0
			c2.479,6.652-0.935,14.104-7.581,16.598L41.813,59.49C35.082,61.757,27.694,58.56,25.214,51.912z"/>
		<path fill-rule="evenodd" clip-rule="evenodd" fill="#FFD7B7" d="M130.488,48.074c3.599,11.617,17.034,58.557-13.24,53.172
			c-30.274-5.387,30.642,45.799,30.642,45.799l26.396-42.936C174.286,104.109,172.907,56.794,130.488,48.074z"/>
		<path fill-rule="evenodd" clip-rule="evenodd" fill="#2E93DB" d="M16.381,51.238L1.763,55.089c-2.23,0.586-2.467,2.1,0,2.803
			l14.302,4.072L16.381,51.238z"/>
		<path fill-rule="evenodd" clip-rule="evenodd" fill="#FCA71F" d="M16.381,51.238l-12.606,3.32
			c0.567,1.215,0.524,2.662-0.177,3.855l12.467,3.551L16.381,51.238z"/>
		<polygon fill-rule="evenodd" clip-rule="evenodd" fill="#4B6480" points="11.825,49.511 239.08,49.843 239.464,65.263 
			11.608,64.98 		"/>
		<polygon fill-rule="evenodd" clip-rule="evenodd" fill="#36485C" points="239.271,57.554 239.464,65.263 11.608,64.98 
			11.718,57.22 		"/>
		<polygon fill-rule="evenodd" clip-rule="evenodd" fill="#FFD7B7" points="175.205,106.105 123.869,146.875 144.047,181.982 
			199.699,146.921 		"/>
		<path fill-rule="evenodd" clip-rule="evenodd" fill="#FFD7B7" d="M163.443,107.314c24.877,10.191,22.246,52.084,7.965,65.1
			c-14.282,13.014-43.741,10.85-58.421-11.896c-16.575-25.68-4.816-27.672-29.27-50.377L46.629,75.707
			c-6.094-5.658-7.527-14.813-2.3-21.305l0,0c5.227-6.49,14.798-7.51,21.302-2.297l53.877,50.02
			C131.474,100.173,147.864,100.933,163.443,107.314z"/>
		
			<rect x="131.037" y="157.872" transform="matrix(0.8507 -0.5256 0.5256 0.8507 -63.9681 116.3851)" fill-rule="evenodd" clip-rule="evenodd" fill="#FFFFFF" width="83.752" height="25.875"/>
		<polygon fill-rule="evenodd" clip-rule="evenodd" fill="#36485C" points="188.176,43.986 245.921,41.099 246.462,62.847 
			243.328,62.841 242.852,43.71 188.24,46.601 		"/>
		<polygon fill-rule="evenodd" clip-rule="evenodd" fill="#4B6480" points="182.611,46.593 250.276,46.695 250.817,68.443 
			183.152,68.359 		"/>
		<polygon fill-rule="evenodd" clip-rule="evenodd" fill="#36485C" points="250.548,57.568 250.817,68.443 183.152,68.359 
			182.882,57.466 		"/>
		<polygon fill-rule="evenodd" clip-rule="evenodd" fill="#FCA71F" points="177.476,49.716 182.69,49.773 183.074,65.193 
			177.258,65.185 		"/>
	</g>
	<line fill="none" x1="174.09" y1="0" x2="174.09" y2="0"/>
</g>
<g id="Objects">
</g>
</svg>
