<?xml version="1.0" encoding="utf-8"?>
<!-- Generator: Adobe Illustrator 15.0.0, SVG Export Plug-In . SVG Version: 6.00 Build 0)  -->
<!DOCTYPE svg PUBLIC "-//W3C//DTD SVG 1.1//EN" "http://www.w3.org/Graphics/SVG/1.1/DTD/svg11.dtd">
<svg version="1.1" id="Layer_1" xmlns="http://www.w3.org/2000/svg" xmlns:xlink="http://www.w3.org/1999/xlink" x="0px" y="0px"
	 width="387.484px" height="495.343px" viewBox="0 0 387.484 495.343" enable-background="new 0 0 387.484 495.343"
	 xml:space="preserve">
<g id="Background">
	<g>
		<path fill="#9A57B4" d="M235.988,40.373"/>
		<path fill="#9A57B4" d="M243.736,60.705l-13.88-5.896c-0.582-0.246-1.259,0.027-1.506,0.607l0.001,0.002
			c-0.248,0.58,0.025,1.258,0.606,1.504l13.881,5.896c0.58,0.246,1.257-0.025,1.503-0.609l0,0
			C244.59,61.628,244.315,60.953,243.736,60.705z"/>
		<path fill="#9A57B4" d="M241.941,64.931l-13.881-5.896c-0.582-0.246-1.259,0.027-1.506,0.607l0,0
			c-0.247,0.582,0.026,1.258,0.608,1.506l13.88,5.896c0.582,0.248,1.258-0.025,1.504-0.607h0.001
			C242.794,65.855,242.521,65.179,241.941,64.931z"/>
		<polyline fill="#FFFFFF" points="387.485,422.542 302.026,475.343 182.178,300.471 267.638,247.671 387.485,422.542 		"/>
		<polyline fill="#E6E7E8" points="387.485,422.542 290.105,234.472 242.638,263.798 344.756,448.943 387.485,422.542 		"/>
		<path fill="#E4BF97" d="M35.391,84.753L35.391,84.753c-3.181-6.346-0.675-14.35,5.753-17.318l61.363-28.33
			c6.429-2.967,14.137-0.59,17.316,5.756l0,0c3.18,6.346,0.585,14.119-5.755,17.314l-61.363,28.33
			C46.261,93.484,38.57,91.099,35.391,84.753z"/>
		<path fill="#E4BF97" d="M56.503,104.156L56.503,104.156c-4.15-5.76-2.949-14.062,2.924-18.014l56.074-37.73
			c5.874-3.953,13.862-2.836,18.012,2.926l0,0c4.149,5.758,2.825,13.846-2.925,18.01L74.513,107.08
			C68.623,111.044,60.652,109.914,56.503,104.156z"/>
		<polygon fill="#E4BF97" points="171.49,126.195 156.104,44.048 90.48,30.232 53.84,53.625 127.493,133.025 		"/>
		<path fill="#E4BF97" d="M80.194,123.156L80.194,123.156c-5.558-4.416-6.654-12.73-2.075-18.131l43.722-51.539
			c4.58-5.4,12.573-6.492,18.131-2.076l0,0c5.559,4.418,6.479,12.561,2.072,18.131L98.323,121.08
			C93.729,126.494,85.75,127.572,80.194,123.156z"/>
		<path fill="#FFDFC5" d="M176.031,139.314L176.031,139.314c-6.646,2.502-15.542-0.543-16.621-7.533l-13.187-85.334
			c-1.079-6.992,0.891-14.123,7.534-16.623l0,0c6.645-2.498,14.104,0.896,16.618,7.535l13.188,85.338
			C184.648,129.712,182.675,136.816,176.031,139.314z"/>
		<path fill="#FFDFC5" d="M91.604,21.767L91.604,21.767c2.252-6.73,9.57-10.234,16.33-8.143L161.28,29.36
			c6.785,2.002,10.395,9.6,8.142,16.332l0,0c-2.253,6.73-9.592,10.379-16.33,8.141L99.746,38.099
			C92.938,36.089,89.352,28.501,91.604,21.767z"/>
		<path fill="#FFDFC5" d="M25.214,51.912L25.214,51.912c-2.479-6.652,0.873-14.342,7.581-16.602l64.051-21.572
			c6.71-2.258,14.119,0.93,16.6,7.58l0,0c2.479,6.652-0.936,14.104-7.581,16.598L41.813,59.49
			C35.082,61.757,27.694,58.56,25.214,51.912z"/>
		<path fill="#FFDFC5" d="M129.576,45.171c3.599,11.617,17.946,61.459-12.328,56.075c-30.274-5.387,30.642,45.799,30.642,45.799
			l26.396-42.936C174.286,104.109,171.995,53.891,129.576,45.171z"/>
		<path fill="#00FF7F" d="M16.381,51.238L1.763,55.089c-2.229,0.586-2.467,2.1,0,2.803l14.302,4.072L16.381,51.238z"/>
		<path fill="#36485C" d="M16.381,51.238l-12.606,3.32c0.567,1.215,0.524,2.662-0.177,3.855l12.467,3.551L16.381,51.238z"/>
		<polygon fill="#00FF7F" points="11.825,49.511 239.08,49.843 239.464,65.263 11.608,64.98 		"/>
		<polygon fill="#00E86E" points="239.271,57.554 239.464,65.263 11.608,64.98 11.718,57.22 		"/>
		<polygon fill="#FFDFC5" points="175.205,106.105 123.869,146.875 144.047,181.982 199.699,146.921 		"/>
		<path fill="#FFDFC5" d="M163.443,107.314c24.877,10.191,22.246,52.084,7.966,65.1c-14.282,13.014-43.741,10.85-58.422-11.896
			c-16.574-25.68-4.815-27.672-29.27-50.377L46.629,75.707c-6.094-5.658-7.527-14.813-2.3-21.305l0,0
			c5.227-6.49,14.798-7.51,21.302-2.297l53.877,50.02C131.474,100.173,147.865,100.933,163.443,107.314z"/>
		<polygon fill="#FFDFC5" points="138.028,178.505 195.977,140.18 268.74,247.671 210.189,283.847 		"/>
		<polygon fill="#36485C" points="188.176,43.986 245.921,41.099 246.462,62.847 243.328,62.841 242.852,43.71 188.24,46.601 		"/>
		<polygon fill="#00FF7F" points="182.611,46.593 250.276,46.695 250.817,68.443 183.152,68.359 		"/>
		<polygon fill="#00E86E" points="250.548,57.568 250.817,68.443 183.152,68.359 182.882,57.466 		"/>
		<polygon fill="#36485C" points="177.476,49.716 182.69,49.773 183.074,65.193 177.258,65.185 		"/>
	</g>
	<line fill="none" x1="174.09" y1="0" x2="174.09" y2="0"/>
</g>
<g id="Objects">
</g>
<polygon fill="#00FF7F" points="200.742,327.838 259.279,293.968 265.063,304.455 208.09,338.56 "/>
<polygon fill="#00E86E" points="259.279,293.968 306.483,266.102 311.995,276.749 265.063,304.455 "/>
<polygon fill="#00FF7F" points="216.614,350.716 272.779,318.218 278.563,328.705 224.009,361.507 "/>
<polygon fill="#00E86E" points="272.779,318.218 319.26,290.779 324.772,301.425 278.563,328.705 "/>
<polygon fill="#00FF7F" points="232.347,373.674 286.279,342.468 292.063,352.955 239.651,384.331 "/>
<polygon fill="#00E86E" points="286.279,342.468 332.037,315.456 337.549,326.102 292.063,352.955 "/>
<polygon fill="#00FF7F" points="248.081,396.631 299.779,366.718 305.563,377.205 255.363,407.256 "/>
<polygon fill="#00E86E" points="299.779,366.718 344.814,340.132 350.326,350.779 305.563,377.205 "/>
<polygon fill="#00FF7F" points="263.815,419.589 313.279,390.968 319.063,401.455 271.074,430.182 "/>
<polygon fill="#00E86E" points="313.279,390.968 357.591,364.809 363.104,375.456 319.063,401.455 "/>
<polygon fill="#00FF7F" points="279.548,442.546 326.779,415.218 332.563,425.705 286.786,453.108 "/>
<polygon fill="#00E86E" points="326.779,415.218 370.368,389.486 375.881,400.132 332.563,425.705 "/>
<polygon fill="#00FF7F" points="295.282,465.504 340.279,439.468 346.063,449.955 302.367,475.814 "/>
<polygon fill="#00E86E" points="340.279,439.468 383.146,414.163 388.618,423.504 346.063,449.955 "/>
</svg>
